<?xml version="1.0" encoding="utf-8"?>
<!-- Generator: Adobe Illustrator 16.0.0, SVG Export Plug-In . SVG Version: 6.00 Build 0)  -->
<!DOCTYPE svg PUBLIC "-//W3C//DTD SVG 1.1//EN" "http://www.w3.org/Graphics/SVG/1.1/DTD/svg11.dtd">
<svg version="1.1" id="Layer_1" xmlns="http://www.w3.org/2000/svg" xmlns:xlink="http://www.w3.org/1999/xlink" x="0px" y="0px"
	 width="328px" height="379px" viewBox="0 0 328 379" enable-background="new 0 0 328 379" xml:space="preserve">
<g>
	<polygon fill="#F7964A" points="55.439,190.256 110.073,95.727 219.342,95.727 273.977,190.26 219.342,284.787 110.073,284.787 	
		"/>
	<polygon fill="#F15C25" points="55.439,190.256 28.122,142.993 0.804,95.727 55.439,95.727 110.073,95.727 82.757,142.993 	"/>
	<polygon fill="#FFFFFF" points="55.479,167.451 38.022,137.248 20.565,107.041 55.479,107.041 90.394,107.041 72.936,137.248 	"/>
	<polygon fill="#F15C25" points="55.593,153.871 43.652,133.211 31.711,112.552 55.593,112.552 79.475,112.552 67.534,133.211 	"/>
	<polygon fill="#F15C25" points="164.708,379.313 137.39,332.051 110.073,284.787 164.708,284.787 219.342,284.787 192.023,332.051 
			"/>
	<polygon fill="#FFFFFF" points="164.747,356.51 147.29,326.303 129.833,296.102 164.747,296.102 199.662,296.102 182.206,326.303 	
		"/>
	<polygon fill="#F15C25" points="164.863,342.926 152.922,322.271 140.981,301.609 164.863,301.609 188.745,301.609 
		176.804,322.271 	"/>
	<polygon fill="#F15C25" points="273.977,190.256 246.658,142.993 219.342,95.727 273.977,95.727 328.613,95.727 301.293,142.993 	
		"/>
	<polygon fill="#FFFFFF" points="274.018,167.453 256.559,137.248 239.103,107.043 274.018,107.043 308.932,107.043 
		291.473,137.248 	"/>
	<polygon fill="#F15C25" points="274.133,153.872 262.192,133.211 250.251,112.552 274.133,112.552 298.016,112.552 
		286.074,133.211 	"/>
	<polygon fill="#28B1E6" points="55.439,190.256 82.757,237.521 110.073,284.787 55.439,284.787 0.804,284.787 28.122,237.521 	"/>
	<polygon fill="#FFFFFF" points="55.397,213.061 72.856,243.266 90.314,273.471 55.397,273.471 20.483,273.471 37.94,243.266 	"/>
	<polygon fill="#28B1E6" points="55.284,226.641 67.225,247.299 79.165,267.961 55.284,267.961 31.401,267.961 43.343,247.299 	"/>
	<polygon fill="#28B1E6" points="273.977,190.26 301.293,237.521 328.613,284.787 273.977,284.787 219.342,284.787 246.658,237.521 
			"/>
	<polygon fill="#FFFFFF" points="273.938,213.061 291.393,243.266 308.852,273.471 273.938,273.471 239.024,273.471 
		256.478,243.266 	"/>
	<polygon fill="#28B1E6" points="273.822,226.641 285.763,247.299 297.705,267.961 273.822,267.961 249.94,267.961 261.881,247.299 
			"/>
	<polygon fill="#28B1E6" points="164.708,1.199 192.023,48.463 219.342,95.727 164.708,95.727 110.073,95.727 137.39,48.463 	"/>
	<polygon fill="#FFFFFF" points="164.668,24.003 182.124,54.207 199.582,84.413 164.668,84.413 129.753,84.413 147.21,54.207 	"/>
	<polygon fill="#28B1E6" points="164.552,37.582 176.493,58.243 188.434,78.904 164.552,78.904 140.67,78.904 152.611,58.243 	"/>
	<path fill="#FFFFFF" d="M75.867,191.412l-0.01-2.401l14.608-0.061l0.01,2.399L75.867,191.412z M91.3,178.34l-14.398-2.471
		l0.406-2.366l14.398,2.471L91.3,178.34z M94.372,165.672l-13.75-4.931l0.811-2.26l13.75,4.931L94.372,165.672z M99.599,153.73
		l-12.683-7.243l1.19-2.084l12.683,7.243L99.599,153.73z M106.823,142.875l-11.232-9.332l1.534-1.847l11.232,9.332L106.823,142.875z
		 M115.826,133.437l-9.439-11.137l1.831-1.552l9.439,11.137L115.826,133.437z M126.331,125.706l-7.36-12.607l2.073-1.21l7.36,12.607
		L126.331,125.706z M138.019,119.913l-5.055-13.691l2.252-0.831l5.055,13.691L138.019,119.913z M150.538,116.237l-2.598-14.361
		l2.362-0.428l2.598,14.361L150.538,116.237z M163.506,114.788l-0.064-14.593l2.4-0.011l0.063,14.593L163.506,114.788z"/>
	<path fill="#FFFFFF" d="M164.781,278.904l-0.063-14.594l2.4-0.01l0.063,14.594L164.781,278.904z M151.621,277.861l-2.365-0.406
		l2.473-14.385l2.365,0.406L151.621,277.861z M180.323,277.641l-2.603-14.363l2.362-0.428l2.601,14.363L180.323,277.641z
		 M136.477,274.145l-2.259-0.811l4.936-13.736l2.259,0.813L136.477,274.145z M195.409,273.695l-5.06-13.688l2.252-0.832l5.06,13.689
		L195.409,273.695z M122.209,267.857l-2.084-1.191l7.248-12.67l2.084,1.191L122.209,267.857z M209.578,267.199l-7.359-12.605
		l2.073-1.211l7.359,12.607L209.578,267.199z M109.249,259.189l-1.845-1.535l9.341-11.217l1.845,1.535L109.249,259.189z
		 M222.407,258.342l-9.44-11.139l1.831-1.553l9.44,11.139L222.407,258.342z M97.995,248.408l-1.55-1.834l11.15-9.426l1.55,1.834
		L97.995,248.408z M233.498,247.389l-11.232-9.332l1.534-1.846l11.232,9.332L233.498,247.389z M88.785,235.84l-1.208-2.074
		l12.619-7.354l1.208,2.074L88.785,235.84z M242.518,234.686l-12.684-7.246l1.19-2.084l12.684,7.246L242.518,234.686z M81.9,221.859
		l-0.83-2.252l13.707-5.053l0.83,2.252L81.9,221.859z M249.191,220.607l-13.75-4.932l0.811-2.26l13.75,4.932L249.191,220.607z
		 M77.55,206.896l-0.427-2.361l14.376-2.596l0.427,2.361L77.55,206.896z M253.315,205.586l-14.397-2.473l0.406-2.365l14.396,2.473
		L253.315,205.586z M240.158,190.139l-0.011-2.399l14.606-0.064l0.011,2.401L240.158,190.139z"/>
	<path fill="#FFFFFF" d="M239.124,177.147l-0.427-2.362l14.376-2.598l0.427,2.362L239.124,177.147z M235.849,164.531l-0.83-2.252
		l13.703-5.05l0.83,2.252L235.849,164.531z M230.429,152.676l-1.208-2.074l12.618-7.351l1.208,2.074L230.429,152.676z
		 M223.031,141.941l-1.55-1.833l11.147-9.429l1.55,1.833L223.031,141.941z M213.878,132.651l-1.845-1.535l9.339-11.22l1.845,1.535
		L213.878,132.651z M203.251,125.092l-2.084-1.191l7.247-12.67l2.084,1.191L203.251,125.092z M191.47,119.488l-2.259-0.812
		l4.937-13.733l2.259,0.811L191.47,119.488z M178.895,116.017l-2.364-0.407l2.475-14.383l2.365,0.407L178.895,116.017z"/>
	
		<rect x="170.62" y="106.21" transform="matrix(-0.9978 -0.0663 0.0663 -0.9978 335.9203 232.6241)" fill="#FFFFFF" width="2.401" height="9.056"/>
	
		<rect x="153.49" y="109.624" transform="matrix(-0.1079 -0.9942 0.9942 -0.1079 64.8887 279.8759)" fill="#FFFFFF" width="9.056" height="2.401"/>
	
		<rect x="139.919" y="112.087" transform="matrix(-0.2791 -0.9603 0.9603 -0.2791 75.9753 283.6119)" fill="#FFFFFF" width="9.058" height="2.4"/>
	
		<rect x="126.978" y="116.847" transform="matrix(-0.4416 -0.8972 0.8972 -0.4416 83.6702 288.1665)" fill="#FFFFFF" width="9.058" height="2.4"/>
	
		<rect x="115.053" y="123.814" transform="matrix(-0.5909 -0.8068 0.8068 -0.5909 89.3825 295.3572)" fill="#FFFFFF" width="9.061" height="2.4"/>
	
		<rect x="104.532" y="132.712" transform="matrix(-0.7219 -0.692 0.692 -0.7219 95.1225 306.0538)" fill="#FFFFFF" width="9.063" height="2.4"/>
	
		<rect x="95.717" y="143.299" transform="matrix(-0.831 -0.5562 0.5562 -0.831 103.1845 320.3433)" fill="#FFFFFF" width="9.064" height="2.4"/>
	
		<rect x="88.878" y="155.261" transform="matrix(-0.915 -0.4033 0.4033 -0.915 115.7744 337.3063)" fill="#FFFFFF" width="9.062" height="2.4"/>
	
		<rect x="84.232" y="168.247" transform="matrix(-0.9711 -0.2386 0.2386 -0.9711 134.535 355.1806)" fill="#FFFFFF" width="9.066" height="2.401"/>
	
		<rect x="81.903" y="181.84" transform="matrix(-0.9978 -0.0664 0.0664 -0.9978 160.5212 371.4181)" fill="#FFFFFF" width="9.064" height="2.4"/>
	
		<rect x="85.3" y="192.294" transform="matrix(-0.1074 -0.9942 0.9942 -0.1074 -99.8988 303.9653)" fill="#FFFFFF" width="2.401" height="9.066"/>
	
		<rect x="87.75" y="205.869" transform="matrix(-0.2783 -0.9605 0.9605 -0.2783 -88.3767 354.4011)" fill="#FFFFFF" width="2.402" height="9.064"/>
	
		<rect x="92.535" y="218.779" transform="matrix(-0.4409 -0.8976 0.8976 -0.4409 -65.3791 405.8913)" fill="#FFFFFF" width="2.4" height="9.062"/>
	
		<rect x="99.498" y="230.714" transform="matrix(-0.5901 -0.8074 0.8074 -0.5901 -29.8114 455.3513)" fill="#FFFFFF" width="2.4" height="9.061"/>
	
		<rect x="108.417" y="241.196" transform="matrix(-0.7214 -0.6925 0.6925 -0.7214 18.5253 498.9058)" fill="#FFFFFF" width="2.4" height="9.062"/>
	
		<rect x="119.039" y="250.005" transform="matrix(-0.8306 -0.5569 0.5569 -0.8306 78.369 532.9077)" fill="#FFFFFF" width="2.399" height="9.058"/>
	
		<rect x="131.022" y="256.848" transform="matrix(-0.9146 -0.4044 0.4044 -0.9146 147.4481 553.9001)" fill="#FFFFFF" width="2.4" height="9.059"/>
	
		<rect x="144.001" y="261.511" transform="matrix(-0.971 -0.2391 0.2391 -0.971 222.5704 559.0803)" fill="#FFFFFF" width="2.401" height="9.054"/>
	
		<rect x="157.622" y="263.822" transform="matrix(-0.9978 -0.0667 0.0667 -0.9978 299.3945 546.6943)" fill="#FFFFFF" width="2.401" height="9.055"/>
	
		<rect x="168.065" y="267.095" transform="matrix(-0.1079 -0.9942 0.9942 -0.1079 -75.5065 468.8392)" fill="#FFFFFF" width="9.057" height="2.401"/>
	
		<rect x="181.657" y="264.625" transform="matrix(-0.2789 -0.9603 0.9603 -0.2789 -17.1642 518.762)" fill="#FFFFFF" width="9.055" height="2.4"/>
	
		<rect x="194.589" y="259.856" transform="matrix(-0.4415 -0.8973 0.8973 -0.4415 52.7967 554.9761)" fill="#FFFFFF" width="9.058" height="2.4"/>
	
		<rect x="206.504" y="252.858" transform="matrix(-0.591 -0.8067 0.8067 -0.591 130.8008 574.4379)" fill="#FFFFFF" width="9.062" height="2.399"/>
	
		<rect x="217.047" y="243.978" transform="matrix(-0.7219 -0.692 0.692 -0.7219 211.886 575.5037)" fill="#FFFFFF" width="9.063" height="2.4"/>
	
		<rect x="225.851" y="233.354" transform="matrix(-0.8311 -0.5561 0.5561 -0.8311 291.4041 557.6133)" fill="#FFFFFF" width="9.061" height="2.4"/>
	
		<rect x="232.699" y="221.39" transform="matrix(-0.9151 -0.4033 0.4033 -0.9151 364.558 521.9464)" fill="#FFFFFF" width="9.067" height="2.401"/>
	
		<rect x="237.339" y="208.417" transform="matrix(-0.9711 -0.2387 0.2387 -0.9711 426.7066 470.9138)" fill="#FFFFFF" width="9.065" height="2.399"/>
	
		<rect x="239.677" y="194.825" transform="matrix(-0.9978 -0.0661 0.0661 -0.9978 474.9225 407.772)" fill="#FFFFFF" width="9.067" height="2.402"/>
	
		<rect x="242.939" y="177.724" transform="matrix(-0.1074 -0.9942 0.9942 -0.1074 89.1503 444.5548)" fill="#FFFFFF" width="2.401" height="9.066"/>
	
		<rect x="240.472" y="164.18" transform="matrix(-0.2786 -0.9604 0.9604 -0.2786 146.9817 447.8247)" fill="#FFFFFF" width="2.401" height="9.065"/>
	
		<rect x="235.674" y="151.233" transform="matrix(-0.441 -0.8975 0.8975 -0.441 201.5403 437.0573)" fill="#FFFFFF" width="2.4" height="9.067"/>
	
		<rect x="228.728" y="139.345" transform="matrix(-0.59 -0.8074 0.8074 -0.59 249.4299 414.4103)" fill="#FFFFFF" width="2.402" height="9.067"/>
	
		<rect x="219.816" y="128.815" transform="matrix(-0.7214 -0.6925 0.6925 -0.7214 288.114 382.5972)" fill="#FFFFFF" width="2.401" height="9.058"/>
	
		<rect x="209.179" y="120.03" transform="matrix(-0.8306 -0.5569 0.5569 -0.8306 315.7612 345.1713)" fill="#FFFFFF" width="2.401" height="9.059"/>
	
		<rect x="197.207" y="113.194" transform="matrix(-0.9147 -0.4042 0.4042 -0.9147 332.2946 305.6009)" fill="#FFFFFF" width="2.4" height="9.057"/>
	
		<rect x="184.226" y="108.557" transform="matrix(-0.9709 -0.2395 0.2395 -0.9709 338.3755 267.2864)" fill="#FFFFFF" width="2.4" height="9.059"/>
	<g>
		<path fill="#F174AB" d="M165.323,114.866c41.287,0,74.771,33.447,74.771,74.69c0,41.245-33.484,74.692-74.771,74.692
			c-41.286,0-74.768-33.447-74.768-74.692C90.554,148.313,124.037,114.866,165.323,114.866L165.323,114.866z"/>
		<path fill="#FFFFFF" d="M165.323,265.449c-41.889,0-75.969-34.047-75.969-75.893s34.08-75.89,75.969-75.89
			c41.891,0,75.972,34.044,75.972,75.89S207.214,265.449,165.323,265.449z M165.323,116.066c-40.566,0-73.568,32.967-73.568,73.49
			c0,40.524,33.002,73.493,73.568,73.493s73.571-32.969,73.571-73.493C238.895,149.034,205.89,116.066,165.323,116.066z"/>
	</g>
	<path fill="#89173E" d="M165.668,258.236c108.211-64.133,47.892-161.759,0-112.037C117.778,96.477,55.792,195.215,165.668,258.236
		L165.668,258.236z"/>
	<path fill="#FCAF1A" d="M164.469,243.5c-13.725,0-24.891-11.152-24.891-24.861c0-0.418,0.012-0.836,0.031-1.25h-0.031v-76.823h2.4
		v76.823h-1.167l1.199,0.059c-0.019,0.395-0.031,0.795-0.031,1.191c0,12.385,10.089,22.461,22.49,22.461
		c12.399,0,22.486-10.076,22.486-22.461c0-0.398-0.01-0.801-0.028-1.195l1.199-0.055h-1.171v-76.823h2.4v76.823h-0.028
		c0.018,0.414,0.028,0.832,0.028,1.25C189.355,232.346,178.191,243.5,164.469,243.5z"/>
	<path fill="#D72027" d="M164.362,176.169c9.884,0,17.899,8.008,17.899,17.88c0,9.871-8.015,17.879-17.899,17.879
		c-9.884,0-17.898-8.008-17.898-17.879C146.463,184.178,154.478,176.169,164.362,176.169L164.362,176.169z"/>
</g>
</svg>
